<?xml version="1.0" encoding="iso-8859-1"?>
<!-- Uploaded to: SVG Repo, www.svgrepo.com, Generator: SVG Repo Mixer Tools -->
<svg fill="#000000" height="800px" width="800px" version="1.1" id="Layer_1" xmlns="http://www.w3.org/2000/svg" xmlns:xlink="http://www.w3.org/1999/xlink" 
	 viewBox="0 0 512 512" xml:space="preserve">
<g>
	<g>
		<path d="M79.026,0v512H332.61c55.342,0,100.364-45.024,100.364-100.364V0H79.026z M399.583,411.636
			c0,36.929-30.043,66.973-66.973,66.973H112.417V33.391h287.165V411.636z"/>
	</g>
</g>
<g>
	<g>
		<path d="M129.113,50.087v210.365h253.774V50.087H129.113z M349.496,227.061H162.504V83.478h186.991V227.061z"/>
	</g>
</g>
<g>
	<g>
		<path d="M284.506,372.621c-22.47,0-40.75,18.281-40.75,40.75s18.281,40.751,40.75,40.751s40.75-18.281,40.75-40.75
			S306.976,372.621,284.506,372.621z M284.506,420.73c-4.058,0-7.358-3.301-7.358-7.358c0-4.057,3.301-7.358,7.358-7.358
			c4.057,0,7.358,3.301,7.358,7.358C291.865,417.429,288.564,420.73,284.506,420.73z"/>
	</g>
</g>
<g>
	<g>
		<path d="M342.137,303.861c-22.47,0-40.75,18.281-40.75,40.75s18.281,40.75,40.75,40.75s40.75-18.279,40.75-40.75
			C382.887,322.14,364.606,303.861,342.137,303.861z M342.137,351.97c-4.058,0-7.358-3.301-7.358-7.358
			c0-4.057,3.301-7.358,7.358-7.358s7.358,3.301,7.358,7.358C349.496,348.669,346.194,351.97,342.137,351.97z"/>
	</g>
</g>
<g>
	<g>
		<polygon points="190.33,349.496 190.33,323.896 156.939,323.896 156.939,349.496 131.339,349.496 131.339,382.887 
			156.939,382.887 156.939,408.487 190.33,408.487 190.33,382.887 215.93,382.887 215.93,349.496 		"/>
	</g>
</g>
</svg>