<?xml version="1.0" encoding="utf-8"?><!-- Uploaded to: SVG Repo, www.svgrepo.com, Generator: SVG Repo Mixer Tools -->
<svg width="800px" height="800px" viewBox="0 0 24 24" fill="none" xmlns="http://www.w3.org/2000/svg">
<path d="M19.5 6C19.5 7.38071 18.3807 8.5 17 8.5C15.6193 8.5 14.5 7.38071 14.5 6C14.5 4.61929 15.6193 3.5 17 3.5C18.3807 3.5 19.5 4.61929 19.5 6Z" fill="#ffffff"/>
<path d="M19.5 18C19.5 19.3807 18.3807 20.5 17 20.5C15.6193 20.5 14.5 19.3807 14.5 18C14.5 16.6193 15.6193 15.5 17 15.5C18.3807 15.5 19.5 16.6193 19.5 18Z" fill="#ffffff"/>
<path d="M9 12C9 13.3807 7.88071 14.5 6.5 14.5C5.11929 14.5 4 13.3807 4 12C4 10.6193 5.11929 9.5 6.5 9.5C7.88071 9.5 9 10.6193 9 12Z" fill="#ffffff"/>
<path d="M17 6L6.80474 11.5611C6.45731 11.7506 6.45731 12.2494 6.80474 12.4389L17 18" stroke="#ffffff" stroke-width="2" stroke-linecap="round" stroke-linejoin="round"/>
</svg>