<?xml version="1.0" standalone="no"?>
<!DOCTYPE svg PUBLIC "-//W3C//DTD SVG 20010904//EN"
 "http://www.w3.org/TR/2001/REC-SVG-20010904/DTD/svg10.dtd">
<svg version="1.0" xmlns="http://www.w3.org/2000/svg"
 width="32.000000pt" height="32.000000pt" viewBox="0 0 32.000000 32.000000"
 preserveAspectRatio="xMidYMid meet">

<g transform="translate(0.000000,32.000000) scale(0.100000,-0.100000)"
fill="#000000" stroke="none">
<path d="M120 307 c-41 -14 -60 -47 -60 -104 0 -49 17 -63 77 -63 22 0 48 -6
58 -14 18 -13 18 -15 2 -40 -26 -39 -107 -35 -107 5 0 14 -7 19 -25 19 -23 0
-25 -4 -25 -40 0 -34 4 -42 26 -50 28 -11 107 -13 142 -4 12 4 29 19 37 35 18
33 20 115 4 125 -7 4 -37 10 -68 13 -54 6 -56 7 -56 36 0 29 2 30 48 33 42 3
47 1 47 -17 0 -16 6 -21 25 -21 29 0 40 19 31 55 -10 39 -88 55 -156 32z"/>
</g>
</svg>
